<svg version="1.1" id="Layer_1" xmlns="http://www.w3.org/2000/svg" xmlns:xlink="http://www.w3.org/1999/xlink" x="0px" y="0px"
	 width="100%" viewBox="0 0 800 800" enable-background="new 0 0 800 800" xml:space="preserve">
<path fill="#000000" opacity="1.000000" stroke="none" 
	d="
M447.863708,454.812134 
	C423.791473,480.587555 387.012634,482.146759 361.609772,458.189606 
	C350.565338,447.773743 344.347382,434.352356 341.238464,419.478088 
	C336.212158,395.430542 337.731506,372.051514 349.492310,350.181946 
	C360.870056,329.024719 378.983978,317.010468 403.120605,317.011749 
	C427.236877,317.013000 445.674164,328.733673 456.623627,350.199768 
	C471.783875,379.920959 471.263580,410.311432 457.601013,440.555023 
	C455.267914,445.719604 451.626587,450.123505 447.863708,454.812134 
M414.782379,375.376770 
	C415.241028,373.953217 415.765686,372.547180 416.147736,371.103363 
	C418.933014,360.578247 413.877563,352.556519 403.211609,350.532318 
	C383.475189,346.786774 368.159821,364.260406 374.235626,383.479706 
	C377.741760,394.570343 385.972107,402.259491 393.444641,410.446350 
	C400.266602,417.920441 404.358490,425.617157 398.321960,435.477875 
	C397.815521,436.305115 397.582458,437.329315 397.356018,438.293365 
	C396.104584,443.621826 398.540253,447.431641 403.890869,448.583435 
	C415.444855,451.070557 426.170288,442.672577 426.671906,430.863770 
	C427.048767,421.991974 422.565857,415.293976 417.080200,409.087311 
	C410.429749,401.562744 408.398132,393.225250 411.946106,383.683899 
	C412.871979,381.194092 413.676727,378.659271 414.782379,375.376770 
z"/>
<path fill="#000000" opacity="1.000000" stroke="none" 
	d="
M330.319427,581.694824 
	C317.825775,569.199280 305.653381,556.879700 293.292908,544.751831 
	C289.882690,541.405762 289.961395,538.860657 293.326294,535.586975 
	C302.395874,526.763062 311.343964,517.810364 320.176422,508.748993 
	C323.273956,505.571136 325.994904,504.910675 328.688141,508.822998 
	C334.458038,517.204651 340.973755,518.357788 350.552429,514.013367 
	C365.669769,507.156769 382.245270,505.188019 398.747345,505.107086 
	C418.684967,505.009308 438.068176,508.840576 456.432312,516.813843 
	C459.888336,518.314392 461.877594,517.740967 464.147369,515.176453 
	C466.459625,512.563843 469.124634,510.266907 471.556763,507.755798 
	C473.517731,505.731140 475.288757,505.348663 477.476715,507.556061 
	C487.323151,517.489807 497.217865,527.376404 507.165222,537.209106 
	C509.518768,539.535461 509.106537,541.543152 507.021332,543.620178 
	C493.456604,557.131531 480.050446,570.808228 466.244720,584.068848 
	C459.694702,590.360291 459.308380,590.049377 452.142517,584.535217 
	C429.568817,567.164490 404.455200,561.983948 376.919861,569.070923 
	C364.297760,572.319580 353.195068,578.683777 343.608734,587.458679 
	C340.764771,590.061890 338.940033,590.483215 336.384277,587.412415 
	C334.694733,585.382385 332.524628,583.752258 330.319427,581.694824 
z"/>
<path fill="#000000" opacity="1.000000" stroke="none" 
	d="
M511.504974,478.465424 
	C510.197845,477.147308 509.180695,476.042542 508.085693,475.021271 
	C504.998413,472.141846 504.754486,469.207764 508.352509,466.744659 
	C516.685181,461.040283 517.376099,454.817596 513.736877,445.053497 
	C500.591980,409.785187 502.149963,374.374786 516.638367,339.657196 
	C518.194214,335.929077 517.999695,333.606293 514.950867,331.104370 
	C512.646423,329.213287 510.824677,326.740265 508.553955,324.800293 
	C505.011200,321.773743 506.074402,319.159973 508.851074,316.449127 
	C516.116455,309.355957 523.365234,302.245819 530.606628,295.128113 
	C532.861450,292.911865 535.062378,290.640930 537.304443,288.411591 
	C539.325134,286.402405 541.288879,286.379852 543.351440,288.459167 
	C558.122070,303.349640 573.355591,317.779694 587.596191,333.199677 
	C589.999268,335.801788 590.268433,337.567413 587.695862,340.243744 
	C572.789185,355.751709 565.820190,374.825775 565.641418,395.866455 
	C565.462158,416.961548 572.499695,436.056793 586.923340,451.893738 
	C589.518127,454.742767 589.663574,456.298035 586.951172,459.210144 
	C572.876221,474.321045 557.998657,488.613495 543.222168,503.016724 
	C540.354126,505.812286 538.347046,505.450256 535.739502,502.777252 
	C527.833069,494.672302 519.764709,486.725372 511.504974,478.465424 
z"/>
<path fill="#000000" opacity="1.000000" stroke="none" 
	d="
M213.671814,337.199524 
	C213.585297,331.759155 218.194916,329.579651 221.035339,326.629547 
	C233.275177,313.917175 246.148453,301.817230 258.639526,289.342529 
	C261.853241,286.132996 264.294861,286.180664 267.407715,289.400360 
	C276.207306,298.501953 285.217651,307.399353 294.079865,316.440979 
	C298.175690,320.619751 298.073181,322.039886 293.860626,325.755981 
	C284.691956,333.844086 284.510468,333.908539 288.583038,345.375824 
	C294.892212,363.140717 298.106873,381.384308 297.234833,400.213806 
	C296.382721,418.613190 292.785095,436.475708 284.797119,453.208496 
	C283.468536,455.991516 283.712158,457.765381 285.768127,459.754272 
	C288.521271,462.417633 291.116119,465.244873 293.873871,467.903198 
	C296.062988,470.013336 296.434113,471.879791 294.058105,474.213806 
	C284.196442,483.901245 274.430786,493.686371 264.625732,503.431488 
	C262.441376,505.602509 260.439606,505.541626 258.208221,503.278625 
	C243.358459,488.218597 228.229736,473.434753 213.860046,457.900330 
	C211.234711,455.062164 212.366837,453.337921 214.408173,451.219025 
	C221.675476,443.675537 227.163437,434.883179 230.707825,425.133209 
	C242.510834,392.665405 236.763763,363.388062 213.671814,337.199524 
z"/>
<path fill="#000000" opacity="1.000000" stroke="none" 
	d="
M293.993530,259.836151 
	C295.602448,254.889236 299.636749,252.201920 302.830994,248.952240 
	C315.200684,236.367844 327.925140,224.132843 340.374908,211.625839 
	C342.977753,209.011017 344.648407,209.704849 347.011780,211.832855 
	C360.764313,224.215775 376.873230,231.853241 395.293579,233.445938 
	C418.511322,235.453415 439.435699,229.024200 457.402618,213.904724 
	C462.855286,209.316147 462.859924,209.036987 467.933868,214.059509 
	C482.012054,227.994919 495.930359,242.091873 510.012115,256.023621 
	C513.038940,259.018219 512.616516,261.436127 509.674438,263.962677 
	C500.058563,272.220398 491.519165,281.583801 482.593750,290.543243 
	C479.340424,293.808990 476.664917,294.827637 473.756805,290.670349 
	C468.129028,282.625092 462.125031,281.926880 452.508118,285.540070 
	C417.273254,298.778290 381.852661,297.502106 347.058441,282.920593 
	C343.362244,281.371582 340.806671,281.851044 337.879150,284.814941 
	C326.711273,296.121674 329.302765,296.311676 318.039398,284.886658 
	C309.988068,276.719788 301.279846,269.183716 293.993530,259.836151 
z"/>
<path fill="#A6ADBB" opacity="1.000000" stroke="none" 
	d="
M440.686493,644.269775 
	C435.949890,661.828491 424.599487,672.384583 407.528748,675.639343 
	C391.712982,678.655029 377.596375,673.822510 367.362915,661.003113 
	C356.442505,647.323242 354.666412,631.892517 362.095551,616.030945 
	C369.054199,601.173889 381.306885,593.720703 397.669098,592.579041 
	C418.609161,591.117920 436.453552,605.967957 440.615082,624.135742 
	C442.116577,630.690918 442.063293,637.284607 440.686493,644.269775 
z"/>
<path fill="#FF8A00" opacity="1.000000" stroke="none" 
	d="
M132.844040,371.978577 
	C141.259048,359.753052 152.908646,353.176331 167.082474,352.949585 
	C187.966705,352.615448 204.958725,365.802094 209.114319,386.225708 
	C213.725540,408.888702 200.871552,429.393982 178.566574,435.605377 
	C154.393997,442.336792 129.198395,424.831604 126.525963,399.848755 
	C125.450890,389.798676 127.595520,380.807983 132.844040,371.978577 
z"/>
<path fill="#2D2D2D" opacity="1.000000" stroke="none" 
	d="
M596.322998,414.434906 
	C585.031128,388.543304 598.414246,360.987305 625.615173,355.240875 
	C655.130005,349.005615 680.016968,373.976471 675.588989,401.807190 
	C671.130554,429.829590 645.018860,445.076691 618.629883,435.260590 
	C608.585388,431.524261 601.226562,424.468475 596.322998,414.434906 
z"/>
<path fill="#0056A9" opacity="1.000000" stroke="none" 
	d="
M412.321594,207.659149 
	C389.046967,214.941925 364.580963,201.143372 358.886078,177.893021 
	C353.059540,154.105209 368.241028,130.777756 392.298492,126.552437 
	C414.782898,122.603386 435.217773,135.810379 440.561035,158.717819 
	C445.281342,178.954529 434.616577,200.255066 412.321594,207.659149 
z"/>
</svg>